<svg xmlns="http://www.w3.org/2000/svg" style="display:none">
  <!-- Lucide (lucide.dev, ISC license) — 24x24 stroke icons, subset. -->
  <symbol id="globe" viewBox="0 0 24 24">
    <circle cx="12" cy="12" r="10"/>
    <path d="M12 2a14.5 14.5 0 0 0 0 20 14.5 14.5 0 0 0 0-20"/>
    <path d="M2 12h20"/>
  </symbol>
  <symbol id="plus" viewBox="0 0 24 24">
    <path d="M5 12h14"/>
    <path d="M12 5v14"/>
  </symbol>
  <symbol id="log-out" viewBox="0 0 24 24">
    <path d="M9 21H5a2 2 0 0 1-2-2V5a2 2 0 0 1 2-2h4"/>
    <polyline points="16 17 21 12 16 7"/>
    <line x1="21" x2="9" y1="12" y2="12"/>
  </symbol>
  <symbol id="external-link" viewBox="0 0 24 24">
    <path d="M15 3h6v6"/>
    <path d="M10 14 21 3"/>
    <path d="M18 13v6a2 2 0 0 1-2 2H5a2 2 0 0 1-2-2V8a2 2 0 0 1 2-2h6"/>
  </symbol>
  <symbol id="chevron-right" viewBox="0 0 24 24">
    <path d="m9 18 6-6-6-6"/>
  </symbol>
  <symbol id="layout-grid" viewBox="0 0 24 24">
    <rect width="7" height="7" x="3" y="3" rx="1"/>
    <rect width="7" height="7" x="14" y="3" rx="1"/>
    <rect width="7" height="7" x="14" y="14" rx="1"/>
    <rect width="7" height="7" x="3" y="14" rx="1"/>
  </symbol>
</svg>
